<svg width="26" height="26" viewBox="0 0 26 26" fill="none" xmlns="http://www.w3.org/2000/svg">
<path d="M13.0001 17.8752C15.6925 17.8752 17.8751 15.6926 17.8751 13.0002C17.8751 10.3078 15.6925 8.12518 13.0001 8.12518C10.3077 8.12518 8.12512 10.3078 8.12512 13.0002C8.12512 15.6926 10.3077 17.8752 13.0001 17.8752Z" stroke="#191B1C" stroke-width="1.625" stroke-linecap="round" stroke-linejoin="round"/>
<path d="M20.049 8.19104C20.2893 8.54387 20.5028 8.91426 20.6876 9.29908L23.3228 10.7619C23.6437 12.2361 23.6448 13.7619 23.326 15.2365L20.6894 16.7002C20.5039 17.0847 20.2899 17.4548 20.049 17.8072L20.0998 20.8208C18.9836 21.8358 17.6627 22.5997 16.2263 23.0609L13.6404 21.5093C13.2147 21.541 12.7872 21.5407 12.3615 21.5083L9.77705 23.059C8.33992 22.5999 7.01795 21.8379 5.90031 20.8245L5.95107 17.8093C5.71076 17.4565 5.4973 17.0861 5.3125 16.7012L2.67734 15.2384C2.35637 13.7642 2.35527 12.2384 2.67411 10.7638L5.31073 9.30013C5.49615 8.9156 5.71019 8.54555 5.95105 8.19309L5.90033 5.17955C7.0165 4.16451 8.33736 3.40063 9.77383 2.93945L12.3597 4.49101C12.7854 4.45931 13.2129 4.45965 13.6386 4.49202L16.223 2.94132C17.6602 3.40042 18.9821 4.16239 20.0998 5.17582L20.049 8.19104Z" stroke="#191B1C" stroke-width="1.625" stroke-linecap="round" stroke-linejoin="round"/>
</svg>
