<svg width="176" height="162" viewBox="0 0 176 162" fill="none" xmlns="http://www.w3.org/2000/svg">
<g filter="url(#filter0_d_179_897)">
<path d="M16 63L28 70V84L16 91L4 84V70L16 63Z" fill="#D9D9D9"/>
<path d="M27 70.5742V83.4248L16 89.8418L5 83.4248V70.5742L16 64.1582L27 70.5742Z" stroke="black" stroke-opacity="0.2" stroke-width="2"/>
<path d="M28 42L40 49V63L28 70L16 63V49L28 42Z" fill="#D9D9D9"/>
<path d="M39 49.5742V62.4248L28 68.8418L17 62.4248V49.5742L28 43.1582L39 49.5742Z" stroke="black" stroke-opacity="0.2" stroke-width="2"/>
<path d="M40 21L52 28V42L40 49L28 42V28L40 21Z" fill="#D9D9D9"/>
<path d="M51 28.5742V41.4248L40 47.8418L29 41.4248V28.5742L40 22.1582L51 28.5742Z" stroke="black" stroke-opacity="0.2" stroke-width="2"/>
<path d="M52 0L64 7V21L52 28L40 21V7L52 0Z" fill="#D9D9D9"/>
<path d="M63 7.57422V20.4248L52 26.8418L41 20.4248V7.57422L52 1.1582L63 7.57422Z" stroke="black" stroke-opacity="0.2" stroke-width="2"/>
<path d="M76 0L88 7V21L76 28L64 21V7L76 0Z" fill="#D9D9D9"/>
<path d="M87 7.57422V20.4248L76 26.8418L65 20.4248V7.57422L76 1.1582L87 7.57422Z" stroke="black" stroke-opacity="0.2" stroke-width="2"/>
<path d="M100 0L112 7V21L100 28L88 21V7L100 0Z" fill="#D9D9D9"/>
<path d="M111 7.57422V20.4248L100 26.8418L89 20.4248V7.57422L100 1.1582L111 7.57422Z" stroke="black" stroke-opacity="0.2" stroke-width="2"/>
<path d="M124 0L136 7V21L124 28L112 21V7L124 0Z" fill="#D9D9D9"/>
<path d="M135 7.57422V20.4248L124 26.8418L113 20.4248V7.57422L124 1.1582L135 7.57422Z" stroke="black" stroke-opacity="0.2" stroke-width="2"/>
<path d="M124 0L136 7V21L124 28L112 21V7L124 0Z" fill="#D9D9D9"/>
<path d="M135 7.57422V20.4248L124 26.8418L113 20.4248V7.57422L124 1.1582L135 7.57422Z" stroke="black" stroke-opacity="0.2" stroke-width="2"/>
<path d="M112 21L124 28V42L112 49L100 42V28L112 21Z" fill="#D9D9D9"/>
<path d="M123 28.5742V41.4248L112 47.8418L101 41.4248V28.5742L112 22.1582L123 28.5742Z" stroke="black" stroke-opacity="0.2" stroke-width="2"/>
<path d="M100 42L112 49V63L100 70L88 63V49L100 42Z" fill="#D9D9D9"/>
<path d="M111 49.5742V62.4248L100 68.8418L89 62.4248V49.5742L100 43.1582L111 49.5742Z" stroke="black" stroke-opacity="0.2" stroke-width="2"/>
<path d="M88 63L100 70V84L88 91L76 84V70L88 63Z" fill="#D9D9D9"/>
<path d="M99 70.5742V83.4248L88 89.8418L77 83.4248V70.5742L88 64.1582L99 70.5742Z" stroke="black" stroke-opacity="0.2" stroke-width="2"/>
<path d="M76 84L88 91V105L76 112L64 105V91L76 84Z" fill="#D9D9D9"/>
<path d="M87 91.5742V104.425L76 110.842L65 104.425V91.5742L76 85.1582L87 91.5742Z" stroke="black" stroke-opacity="0.2" stroke-width="2"/>
<path d="M64 105L76 112V126L64 133L52 126V112L64 105Z" fill="#D9D9D9"/>
<path d="M75 112.574V125.425L64 131.842L53 125.425V112.574L64 106.158L75 112.574Z" stroke="black" stroke-opacity="0.2" stroke-width="2"/>
<path d="M88 105L100 112V126L88 133L76 126V112L88 105Z" fill="#D9D9D9"/>
<path d="M99 112.574V125.425L88 131.842L77 125.425V112.574L88 106.158L99 112.574Z" stroke="black" stroke-opacity="0.2" stroke-width="2"/>
<path d="M112 105L124 112V126L112 133L100 126V112L112 105Z" fill="#D9D9D9"/>
<path d="M123 112.574V125.425L112 131.842L101 125.425V112.574L112 106.158L123 112.574Z" stroke="black" stroke-opacity="0.2" stroke-width="2"/>
<path d="M100 84L112 91V105L100 112L88 105V91L100 84Z" fill="#D9D9D9"/>
<path d="M111 91.5742V104.425L100 110.842L89 104.425V91.5742L100 85.1582L111 91.5742Z" stroke="black" stroke-opacity="0.2" stroke-width="2"/>
<path d="M124 84L136 91V105L124 112L112 105V91L124 84Z" fill="#D9D9D9"/>
<path d="M135 91.5742V104.425L124 110.842L113 104.425V91.5742L124 85.1582L135 91.5742Z" stroke="black" stroke-opacity="0.2" stroke-width="2"/>
<path d="M148 84L160 91V105L148 112L136 105V91L148 84Z" fill="#D9D9D9"/>
<path d="M159 91.5742V104.425L148 110.842L137 104.425V91.5742L148 85.1582L159 91.5742Z" stroke="black" stroke-opacity="0.2" stroke-width="2"/>
<path d="M136 21L148 28V42L136 49L124 42V28L136 21Z" fill="#D9D9D9"/>
<path d="M147 28.5742V41.4248L136 47.8418L125 41.4248V28.5742L136 22.1582L147 28.5742Z" stroke="black" stroke-opacity="0.2" stroke-width="2"/>
<path d="M148 42L160 49V63L148 70L136 63V49L148 42Z" fill="#D9D9D9"/>
<path d="M159 49.5742V62.4248L148 68.8418L137 62.4248V49.5742L148 43.1582L159 49.5742Z" stroke="black" stroke-opacity="0.2" stroke-width="2"/>
<path d="M160 63L172 70V84L160 91L148 84V70L160 63Z" fill="#D9D9D9"/>
<path d="M171 70.5742V83.4248L160 89.8418L149 83.4248V70.5742L160 64.1582L171 70.5742Z" stroke="black" stroke-opacity="0.2" stroke-width="2"/>
<path d="M136 63L148 70V84L136 91L124 84V70L136 63Z" fill="#D9D9D9"/>
<path d="M147 70.5742V83.4248L136 89.8418L125 83.4248V70.5742L136 64.1582L147 70.5742Z" stroke="black" stroke-opacity="0.2" stroke-width="2"/>
<path d="M124 42L136 49V63L124 70L112 63V49L124 42Z" fill="#D9D9D9"/>
<path d="M135 49.5742V62.4248L124 68.8418L113 62.4248V49.5742L124 43.1582L135 49.5742Z" stroke="black" stroke-opacity="0.2" stroke-width="2"/>
<path d="M112 63L124 70V84L112 91L100 84V70L112 63Z" fill="#D9D9D9"/>
<path d="M123 70.5742V83.4248L112 89.8418L101 83.4248V70.5742L112 64.1582L123 70.5742Z" stroke="black" stroke-opacity="0.2" stroke-width="2"/>
<path d="M52 84L64 91V105L52 112L40 105V91L52 84Z" fill="#D9D9D9"/>
<path d="M63 91.5742V104.425L52 110.842L41 104.425V91.5742L52 85.1582L63 91.5742Z" stroke="black" stroke-opacity="0.2" stroke-width="2"/>
<path d="M64 63L76 70V84L64 91L52 84V70L64 63Z" fill="#D9D9D9"/>
<path d="M75 70.5742V83.4248L64 89.8418L53 83.4248V70.5742L64 64.1582L75 70.5742Z" stroke="black" stroke-opacity="0.2" stroke-width="2"/>
<path d="M76 42L88 49V63L76 70L64 63V49L76 42Z" fill="#D9D9D9"/>
<path d="M87 49.5742V62.4248L76 68.8418L65 62.4248V49.5742L76 43.1582L87 49.5742Z" stroke="black" stroke-opacity="0.2" stroke-width="2"/>
<path d="M88 21L100 28V42L88 49L76 42V28L88 21Z" fill="#D9D9D9"/>
<path d="M99 28.5742V41.4248L88 47.8418L77 41.4248V28.5742L88 22.1582L99 28.5742Z" stroke="black" stroke-opacity="0.2" stroke-width="2"/>
<path d="M40 63L52 70V84L40 91L28 84V70L40 63Z" fill="#D9D9D9"/>
<path d="M51 70.5742V83.4248L40 89.8418L29 83.4248V70.5742L40 64.1582L51 70.5742Z" stroke="black" stroke-opacity="0.2" stroke-width="2"/>
<path d="M52 42L64 49V63L52 70L40 63V49L52 42Z" fill="#D9D9D9"/>
<path d="M63 49.5742V62.4248L52 68.8418L41 62.4248V49.5742L52 43.1582L63 49.5742Z" stroke="black" stroke-opacity="0.2" stroke-width="2"/>
<path d="M64 21L76 28V42L64 49L52 42V28L64 21Z" fill="#D9D9D9"/>
<path d="M75 28.5742V41.4248L64 47.8418L53 41.4248V28.5742L64 22.1582L75 28.5742Z" stroke="black" stroke-opacity="0.2" stroke-width="2"/>
<path d="M136 105L148 112V126L136 133L124 126V112L136 105Z" fill="#D9D9D9"/>
<path d="M147 112.574V125.425L136 131.842L125 125.425V112.574L136 106.158L147 112.574Z" stroke="black" stroke-opacity="0.2" stroke-width="2"/>
<path d="M124 126L136 133V147L124 154L112 147V133L124 126Z" fill="#D9D9D9"/>
<path d="M135 133.574V146.425L124 152.842L113 146.425V133.574L124 127.158L135 133.574Z" stroke="black" stroke-opacity="0.2" stroke-width="2"/>
<path d="M100 126L112 133V147L100 154L88 147V133L100 126Z" fill="#D9D9D9"/>
<path d="M111 133.574V146.425L100 152.842L89 146.425V133.574L100 127.158L111 133.574Z" stroke="black" stroke-opacity="0.2" stroke-width="2"/>
<path d="M76 126L88 133V147L76 154L64 147V133L76 126Z" fill="#D9D9D9"/>
<path d="M87 133.574V146.425L76 152.842L65 146.425V133.574L76 127.158L87 133.574Z" stroke="black" stroke-opacity="0.2" stroke-width="2"/>
<path d="M52 126L64 133V147L52 154L40 147V133L52 126Z" fill="#D9D9D9"/>
<path d="M63 133.574V146.425L52 152.842L41 146.425V133.574L52 127.158L63 133.574Z" stroke="black" stroke-opacity="0.2" stroke-width="2"/>
<path d="M40 105L52 112V126L40 133L28 126V112L40 105Z" fill="#D9D9D9"/>
<path d="M51 112.574V125.425L40 131.842L29 125.425V112.574L40 106.158L51 112.574Z" stroke="black" stroke-opacity="0.2" stroke-width="2"/>
<path d="M28 84L40 91V105L28 112L16 105V91L28 84Z" fill="#D9D9D9"/>
<path d="M39 91.5742V104.425L28 110.842L17 104.425V91.5742L28 85.1582L39 91.5742Z" stroke="black" stroke-opacity="0.2" stroke-width="2"/>
</g>
<defs>
<filter id="filter0_d_179_897" x="0" y="0" width="176" height="162" filterUnits="userSpaceOnUse" color-interpolation-filters="sRGB">
<feFlood flood-opacity="0" result="BackgroundImageFix"/>
<feColorMatrix in="SourceAlpha" type="matrix" values="0 0 0 0 0 0 0 0 0 0 0 0 0 0 0 0 0 0 127 0" result="hardAlpha"/>
<feOffset dy="4"/>
<feGaussianBlur stdDeviation="2"/>
<feComposite in2="hardAlpha" operator="out"/>
<feColorMatrix type="matrix" values="0 0 0 0 0 0 0 0 0 0 0 0 0 0 0 0 0 0 0.25 0"/>
<feBlend mode="normal" in2="BackgroundImageFix" result="effect1_dropShadow_179_897"/>
<feBlend mode="normal" in="SourceGraphic" in2="effect1_dropShadow_179_897" result="shape"/>
</filter>
</defs>
</svg>
