<?xml version="1.0" encoding="UTF-8"?>
<svg id="Layer_1" xmlns="http://www.w3.org/2000/svg" xmlns:xlink="http://www.w3.org/1999/xlink" version="1.1" viewBox="0 0 319.5 274.6">
  <!-- Generator: Adobe Illustrator 29.0.1, SVG Export Plug-In . SVG Version: 2.1.0 Build 192)  -->
  <defs>
    <style>
      .st0, .st1, .st2 {
        fill: none;
      }

      .st3 {
        clip-path: url(#clippath-17);
      }

      .st4 {
        clip-path: url(#clippath-19);
      }

      .st5 {
        clip-path: url(#clippath-11);
      }

      .st6 {
        clip-path: url(#clippath-16);
      }

      .st7 {
        clip-path: url(#clippath-18);
      }

      .st8 {
        clip-path: url(#clippath-10);
      }

      .st9 {
        clip-path: url(#clippath-15);
      }

      .st10 {
        clip-path: url(#clippath-13);
      }

      .st11 {
        clip-path: url(#clippath-14);
      }

      .st12 {
        clip-path: url(#clippath-12);
      }

      .st13 {
        clip-path: url(#clippath-61);
      }

      .st14 {
        clip-path: url(#clippath-67);
      }

      .st15 {
        clip-path: url(#clippath-68);
      }

      .st16 {
        clip-path: url(#clippath-60);
      }

      .st17 {
        clip-path: url(#clippath-65);
      }

      .st18 {
        clip-path: url(#clippath-62);
      }

      .st19 {
        clip-path: url(#clippath-64);
      }

      .st20 {
        clip-path: url(#clippath-66);
      }

      .st21 {
        clip-path: url(#clippath-63);
      }

      .st22 {
        clip-path: url(#clippath-76);
      }

      .st23 {
        clip-path: url(#clippath-75);
      }

      .st24 {
        clip-path: url(#clippath-50);
      }

      .st25 {
        clip-path: url(#clippath-55);
      }

      .st26 {
        clip-path: url(#clippath-52);
      }

      .st27 {
        clip-path: url(#clippath-57);
      }

      .st28 {
        clip-path: url(#clippath-54);
      }

      .st29 {
        clip-path: url(#clippath-56);
      }

      .st30 {
        clip-path: url(#clippath-53);
      }

      .st31 {
        clip-path: url(#clippath-70);
      }

      .st32 {
        clip-path: url(#clippath-74);
      }

      .st33 {
        clip-path: url(#clippath-71);
      }

      .st34 {
        clip-path: url(#clippath-73);
      }

      .st35 {
        clip-path: url(#clippath-72);
      }

      .st36 {
        clip-path: url(#clippath-51);
      }

      .st37 {
        clip-path: url(#clippath-58);
      }

      .st38 {
        clip-path: url(#clippath-59);
      }

      .st39 {
        clip-path: url(#clippath-31);
      }

      .st40 {
        clip-path: url(#clippath-32);
      }

      .st41 {
        clip-path: url(#clippath-33);
      }

      .st42 {
        clip-path: url(#clippath-34);
      }

      .st43 {
        clip-path: url(#clippath-35);
      }

      .st44 {
        clip-path: url(#clippath-39);
      }

      .st45 {
        clip-path: url(#clippath-30);
      }

      .st46 {
        clip-path: url(#clippath-36);
      }

      .st47 {
        clip-path: url(#clippath-37);
      }

      .st48 {
        clip-path: url(#clippath-38);
      }

      .st49 {
        clip-path: url(#clippath-27);
      }

      .st50 {
        clip-path: url(#clippath-29);
      }

      .st51 {
        clip-path: url(#clippath-26);
      }

      .st52 {
        clip-path: url(#clippath-28);
      }

      .st53 {
        clip-path: url(#clippath-20);
      }

      .st54 {
        clip-path: url(#clippath-21);
      }

      .st55 {
        clip-path: url(#clippath-22);
      }

      .st56 {
        clip-path: url(#clippath-23);
      }

      .st57 {
        clip-path: url(#clippath-24);
      }

      .st58 {
        clip-path: url(#clippath-25);
      }

      .st59 {
        clip-path: url(#clippath-69);
      }

      .st60 {
        clip-path: url(#clippath-41);
      }

      .st61 {
        clip-path: url(#clippath-42);
      }

      .st62 {
        clip-path: url(#clippath-43);
      }

      .st63 {
        clip-path: url(#clippath-44);
      }

      .st64 {
        clip-path: url(#clippath-45);
      }

      .st65 {
        clip-path: url(#clippath-49);
      }

      .st66 {
        clip-path: url(#clippath-40);
      }

      .st67 {
        clip-path: url(#clippath-46);
      }

      .st68 {
        clip-path: url(#clippath-47);
      }

      .st69 {
        clip-path: url(#clippath-48);
      }

      .st70 {
        clip-path: url(#clippath-1);
      }

      .st71 {
        clip-path: url(#clippath-3);
      }

      .st72 {
        clip-path: url(#clippath-4);
      }

      .st73 {
        clip-path: url(#clippath-2);
      }

      .st74 {
        clip-path: url(#clippath-7);
      }

      .st75 {
        clip-path: url(#clippath-6);
      }

      .st76 {
        clip-path: url(#clippath-9);
      }

      .st77 {
        clip-path: url(#clippath-8);
      }

      .st78 {
        clip-path: url(#clippath-5);
      }

      .st79 {
        fill: #467930;
      }

      .st1 {
        stroke-miterlimit: 10;
      }

      .st1, .st2 {
        stroke: #000;
      }

      .st80 {
        clip-path: url(#clippath);
      }

      .st2 {
        stroke-width: 8px;
      }
    </style>
    <clipPath id="clippath">
      <rect class="st0" x="4.6" y="4" width="310.3" height="266.6"/>
    </clipPath>
    <clipPath id="clippath-1">
      <polygon class="st0" points="314.8 137.3 237.3 270.6 82.2 270.6 4.6 137.3 82.2 4 237.3 4 314.8 137.3"/>
    </clipPath>
    <clipPath id="clippath-2">
      <polygon class="st1" points="314.8 137.3 237.3 270.6 82.2 270.6 4.6 137.3 82.2 4 237.3 4 314.8 137.3"/>
    </clipPath>
    <clipPath id="clippath-3">
      <rect class="st0" x="234.7" y="133.3" width="15.7" height="15.7"/>
    </clipPath>
    <clipPath id="clippath-4">
      <circle class="st0" cx="242.6" cy="141.2" r="7.9"/>
    </clipPath>
    <clipPath id="clippath-5">
      <rect class="st0" x="193.5" y="133.3" width="15.7" height="15.7"/>
    </clipPath>
    <clipPath id="clippath-6">
      <circle class="st0" cx="201.3" cy="141.2" r="7.9"/>
    </clipPath>
    <clipPath id="clippath-7">
      <rect class="st0" x="152.3" y="133.3" width="15.7" height="15.7"/>
    </clipPath>
    <clipPath id="clippath-8">
      <circle class="st0" cx="160.1" cy="141.2" r="7.9"/>
    </clipPath>
    <clipPath id="clippath-9">
      <rect class="st0" x="111" y="133.3" width="15.7" height="15.7"/>
    </clipPath>
    <clipPath id="clippath-10">
      <circle class="st0" cx="118.9" cy="141.2" r="7.9"/>
    </clipPath>
    <clipPath id="clippath-11">
      <rect class="st0" x="69.8" y="133.3" width="15.7" height="15.7"/>
    </clipPath>
    <clipPath id="clippath-12">
      <circle class="st0" cx="77.7" cy="141.2" r="7.9"/>
    </clipPath>
    <clipPath id="clippath-13">
      <rect class="st0" x="28.6" y="133.3" width="15.7" height="15.7"/>
    </clipPath>
    <clipPath id="clippath-14">
      <circle class="st0" cx="36.4" cy="141.2" r="7.9" transform="translate(-105.5 174.5) rotate(-88.8)"/>
    </clipPath>
    <clipPath id="clippath-15">
      <rect class="st0" x="276" y="133.3" width="15.7" height="15.7"/>
    </clipPath>
    <clipPath id="clippath-16">
      <circle class="st0" cx="283.8" cy="141.2" r="7.9"/>
    </clipPath>
    <clipPath id="clippath-17">
      <rect class="st0" x="255" y="100.5" width="15.7" height="15.7"/>
    </clipPath>
    <clipPath id="clippath-18">
      <circle class="st0" cx="262.9" cy="108.3" r="7.9"/>
    </clipPath>
    <clipPath id="clippath-19">
      <rect class="st0" x="213.8" y="100.5" width="15.7" height="15.7"/>
    </clipPath>
    <clipPath id="clippath-20">
      <circle class="st0" cx="221.7" cy="108.3" r="7.9"/>
    </clipPath>
    <clipPath id="clippath-21">
      <rect class="st0" x="172.6" y="100.5" width="15.7" height="15.7"/>
    </clipPath>
    <clipPath id="clippath-22">
      <circle class="st0" cx="180.4" cy="108.3" r="7.9"/>
    </clipPath>
    <clipPath id="clippath-23">
      <rect class="st0" x="131.4" y="100.5" width="15.7" height="15.7"/>
    </clipPath>
    <clipPath id="clippath-24">
      <circle class="st0" cx="139.2" cy="108.3" r="7.9"/>
    </clipPath>
    <clipPath id="clippath-25">
      <rect class="st0" x="90.1" y="100.5" width="15.7" height="15.7"/>
    </clipPath>
    <clipPath id="clippath-26">
      <circle class="st0" cx="98" cy="108.3" r="7.8"/>
    </clipPath>
    <clipPath id="clippath-27">
      <rect class="st0" x="48.9" y="100.5" width="15.7" height="15.7"/>
    </clipPath>
    <clipPath id="clippath-28">
      <circle class="st0" cx="56.8" cy="108.3" r="7.8"/>
    </clipPath>
    <clipPath id="clippath-29">
      <rect class="st0" x="234.7" y="68.8" width="15.7" height="15.7"/>
    </clipPath>
    <clipPath id="clippath-30">
      <circle class="st0" cx="242.6" cy="76.6" r="7.8"/>
    </clipPath>
    <clipPath id="clippath-31">
      <rect class="st0" x="193.5" y="68.8" width="15.7" height="15.7"/>
    </clipPath>
    <clipPath id="clippath-32">
      <circle class="st0" cx="201.3" cy="76.6" r="7.8"/>
    </clipPath>
    <clipPath id="clippath-33">
      <rect class="st0" x="152.3" y="68.8" width="15.7" height="15.7"/>
    </clipPath>
    <clipPath id="clippath-34">
      <circle class="st0" cx="160.1" cy="76.6" r="7.8"/>
    </clipPath>
    <clipPath id="clippath-35">
      <rect class="st0" x="111" y="68.8" width="15.7" height="15.7"/>
    </clipPath>
    <clipPath id="clippath-36">
      <circle class="st0" cx="118.9" cy="76.6" r="7.8"/>
    </clipPath>
    <clipPath id="clippath-37">
      <rect class="st0" x="69.8" y="68.8" width="15.7" height="15.7"/>
    </clipPath>
    <clipPath id="clippath-38">
      <circle class="st0" cx="77.7" cy="76.6" r="7.8"/>
    </clipPath>
    <clipPath id="clippath-39">
      <rect class="st0" x="213.8" y="37.1" width="15.7" height="15.7"/>
    </clipPath>
    <clipPath id="clippath-40">
      <circle class="st0" cx="221.7" cy="45" r="7.8"/>
    </clipPath>
    <clipPath id="clippath-41">
      <rect class="st0" x="172.6" y="37.1" width="15.7" height="15.7"/>
    </clipPath>
    <clipPath id="clippath-42">
      <circle class="st0" cx="180.4" cy="45" r="7.8"/>
    </clipPath>
    <clipPath id="clippath-43">
      <rect class="st0" x="131.4" y="37.1" width="15.7" height="15.7"/>
    </clipPath>
    <clipPath id="clippath-44">
      <circle class="st0" cx="139.2" cy="45" r="7.8"/>
    </clipPath>
    <clipPath id="clippath-45">
      <rect class="st0" x="90.1" y="37.1" width="15.7" height="15.7"/>
    </clipPath>
    <clipPath id="clippath-46">
      <circle class="st0" cx="98" cy="45" r="7.8"/>
    </clipPath>
    <clipPath id="clippath-47">
      <rect class="st0" x="49.2" y="166.2" width="15.7" height="15.7"/>
    </clipPath>
    <clipPath id="clippath-48">
      <circle class="st0" cx="57.1" cy="174.1" r="7.9"/>
    </clipPath>
    <clipPath id="clippath-49">
      <rect class="st0" x="90.4" y="166.2" width="15.7" height="15.7"/>
    </clipPath>
    <clipPath id="clippath-50">
      <circle class="st0" cx="98.3" cy="174.1" r="7.9"/>
    </clipPath>
    <clipPath id="clippath-51">
      <rect class="st0" x="131.6" y="166.2" width="15.7" height="15.7"/>
    </clipPath>
    <clipPath id="clippath-52">
      <circle class="st0" cx="139.5" cy="174.1" r="7.9"/>
    </clipPath>
    <clipPath id="clippath-53">
      <rect class="st0" x="172.9" y="166.2" width="15.7" height="15.7"/>
    </clipPath>
    <clipPath id="clippath-54">
      <circle class="st0" cx="180.7" cy="174.1" r="7.9"/>
    </clipPath>
    <clipPath id="clippath-55">
      <rect class="st0" x="214.1" y="166.2" width="15.7" height="15.7"/>
    </clipPath>
    <clipPath id="clippath-56">
      <circle class="st0" cx="222" cy="174.1" r="7.9"/>
    </clipPath>
    <clipPath id="clippath-57">
      <rect class="st0" x="255.3" y="166.2" width="15.7" height="15.7"/>
    </clipPath>
    <clipPath id="clippath-58">
      <circle class="st0" cx="263.2" cy="174.1" r="7.9"/>
    </clipPath>
    <clipPath id="clippath-59">
      <rect class="st0" x="69.5" y="197.9" width="15.7" height="15.7"/>
    </clipPath>
    <clipPath id="clippath-60">
      <circle class="st0" cx="77.4" cy="205.7" r="7.9"/>
    </clipPath>
    <clipPath id="clippath-61">
      <rect class="st0" x="110.7" y="197.9" width="15.7" height="15.7"/>
    </clipPath>
    <clipPath id="clippath-62">
      <circle class="st0" cx="118.6" cy="205.7" r="7.9"/>
    </clipPath>
    <clipPath id="clippath-63">
      <rect class="st0" x="152" y="197.9" width="15.7" height="15.7"/>
    </clipPath>
    <clipPath id="clippath-64">
      <circle class="st0" cx="159.8" cy="205.7" r="7.9"/>
    </clipPath>
    <clipPath id="clippath-65">
      <rect class="st0" x="193.2" y="197.9" width="15.7" height="15.7"/>
    </clipPath>
    <clipPath id="clippath-66">
      <circle class="st0" cx="201.1" cy="205.7" r="7.9"/>
    </clipPath>
    <clipPath id="clippath-67">
      <rect class="st0" x="234.4" y="197.9" width="15.7" height="15.7"/>
    </clipPath>
    <clipPath id="clippath-68">
      <circle class="st0" cx="242.3" cy="205.7" r="7.9"/>
    </clipPath>
    <clipPath id="clippath-69">
      <rect class="st0" x="90.4" y="229.5" width="15.7" height="15.7"/>
    </clipPath>
    <clipPath id="clippath-70">
      <circle class="st0" cx="98.3" cy="237.4" r="7.9"/>
    </clipPath>
    <clipPath id="clippath-71">
      <rect class="st0" x="131.6" y="229.5" width="15.7" height="15.7"/>
    </clipPath>
    <clipPath id="clippath-72">
      <circle class="st0" cx="139.5" cy="237.4" r="7.9"/>
    </clipPath>
    <clipPath id="clippath-73">
      <rect class="st0" x="172.9" y="229.5" width="15.7" height="15.7"/>
    </clipPath>
    <clipPath id="clippath-74">
      <circle class="st0" cx="180.7" cy="237.4" r="7.9"/>
    </clipPath>
    <clipPath id="clippath-75">
      <rect class="st0" x="214.1" y="229.5" width="15.7" height="15.7"/>
    </clipPath>
    <clipPath id="clippath-76">
      <circle class="st0" cx="222" cy="237.4" r="7.9"/>
    </clipPath>
  </defs>
  <g class="st80">
    <g class="st70">
      <path class="st79" d="M4.6,4h310.3v266.6H4.6V4Z"/>
    </g>
  </g>
  <g>
    <g class="st73">
      <path class="st2" d="M314.8,137.3l-77.6,133.3H82.2L4.6,137.3,82.2,4h155.1l77.6,133.3h0Z"/>
    </g>
    <polygon class="st1" points="314.8 137.3 237.3 270.6 82.2 270.6 4.6 137.3 82.2 4 237.3 4 314.8 137.3"/>
  </g>
  <g class="st71">
    <g class="st72">
      <g>
        <path d="M234.7,133.3h15.7v15.7h-15.7v-15.7Z"/>
        <path class="st2" d="M242.6,133.3c4.3,0,7.9,3.5,7.9,7.9s-3.5,7.9-7.9,7.9-7.9-3.5-7.9-7.9,3.5-7.9,7.9-7.9Z"/>
      </g>
    </g>
  </g>
  <g class="st78">
    <g class="st75">
      <g>
        <path d="M193.5,133.3h15.7v15.7h-15.7v-15.7Z"/>
        <path class="st2" d="M201.3,133.3c4.3,0,7.9,3.5,7.9,7.9s-3.5,7.9-7.9,7.9-7.9-3.5-7.9-7.9,3.5-7.9,7.9-7.9Z"/>
      </g>
    </g>
  </g>
  <g class="st74">
    <g class="st77">
      <g>
        <path d="M152.3,133.3h15.7v15.7h-15.7v-15.7Z"/>
        <path class="st2" d="M160.1,133.3c4.3,0,7.9,3.5,7.9,7.9s-3.5,7.9-7.9,7.9-7.9-3.5-7.9-7.9,3.5-7.9,7.9-7.9Z"/>
      </g>
    </g>
  </g>
  <g class="st76">
    <g class="st8">
      <g>
        <path d="M111,133.3h15.7v15.7h-15.7v-15.7Z"/>
        <path class="st2" d="M118.9,133.3c4.3,0,7.8,3.5,7.8,7.9s-3.5,7.9-7.8,7.9-7.8-3.5-7.8-7.9,3.5-7.9,7.8-7.9Z"/>
      </g>
    </g>
  </g>
  <g class="st5">
    <g class="st12">
      <g>
        <path d="M69.8,133.3h15.7v15.7h-15.7v-15.7Z"/>
        <path class="st2" d="M77.7,133.3c4.3,0,7.8,3.5,7.8,7.9s-3.5,7.9-7.8,7.9-7.8-3.5-7.8-7.9,3.5-7.9,7.8-7.9Z"/>
      </g>
    </g>
  </g>
  <g class="st10">
    <g class="st11">
      <g>
        <path d="M28.6,133.3h15.7v15.7h-15.7s0-15.7,0-15.7Z"/>
        <path class="st2" d="M36.4,133.3c4.3,0,7.8,3.5,7.8,7.9s-3.5,7.9-7.8,7.9-7.9-3.5-7.9-7.9,3.5-7.9,7.9-7.9Z"/>
      </g>
    </g>
  </g>
  <g class="st9">
    <g class="st6">
      <g>
        <path d="M276,133.3h15.7v15.7h-15.7v-15.7Z"/>
        <path class="st2" d="M283.8,133.3c4.3,0,7.9,3.5,7.9,7.9s-3.5,7.9-7.9,7.9-7.9-3.5-7.9-7.9,3.5-7.9,7.9-7.9Z"/>
      </g>
    </g>
  </g>
  <g class="st3">
    <g class="st7">
      <g>
        <path d="M255,100.4h15.7v15.7h-15.7v-15.7Z"/>
        <path class="st2" d="M262.9,100.4c4.3,0,7.9,3.5,7.9,7.8s-3.5,7.8-7.9,7.8-7.9-3.5-7.9-7.8,3.5-7.8,7.9-7.8Z"/>
      </g>
    </g>
  </g>
  <g class="st4">
    <g class="st53">
      <g>
        <path d="M213.8,100.4h15.7v15.7h-15.7v-15.7Z"/>
        <path class="st2" d="M221.7,100.4c4.3,0,7.9,3.5,7.9,7.8s-3.5,7.8-7.9,7.8-7.9-3.5-7.9-7.8,3.5-7.8,7.9-7.8Z"/>
      </g>
    </g>
  </g>
  <g class="st54">
    <g class="st55">
      <g>
        <path d="M172.6,100.4h15.7v15.7h-15.7v-15.7Z"/>
        <path class="st2" d="M180.4,100.4c4.3,0,7.9,3.5,7.9,7.8s-3.5,7.8-7.9,7.8-7.9-3.5-7.9-7.8,3.5-7.8,7.9-7.8Z"/>
      </g>
    </g>
  </g>
  <g class="st56">
    <g class="st57">
      <g>
        <path d="M131.4,100.4h15.7v15.7h-15.7v-15.7Z"/>
        <path class="st2" d="M139.2,100.4c4.3,0,7.9,3.5,7.9,7.8s-3.5,7.8-7.9,7.8-7.9-3.5-7.9-7.8,3.5-7.8,7.9-7.8Z"/>
      </g>
    </g>
  </g>
  <g class="st58">
    <g class="st51">
      <g>
        <path d="M90.1,100.4h15.7v15.7h-15.7v-15.7Z"/>
        <path class="st2" d="M98,100.4c4.3,0,7.8,3.5,7.8,7.8s-3.5,7.8-7.8,7.8-7.8-3.5-7.8-7.8,3.5-7.8,7.8-7.8Z"/>
      </g>
    </g>
  </g>
  <g class="st49">
    <g class="st52">
      <g>
        <path d="M48.9,100.4h15.7v15.7h-15.7v-15.7Z"/>
        <path class="st2" d="M56.8,100.4c4.3,0,7.8,3.5,7.8,7.8s-3.5,7.8-7.8,7.8-7.8-3.5-7.8-7.8,3.5-7.8,7.8-7.8Z"/>
      </g>
    </g>
  </g>
  <g class="st50">
    <g class="st45">
      <g>
        <path d="M234.7,68.8h15.7v15.7h-15.7v-15.7Z"/>
        <path class="st2" d="M242.6,68.8c4.3,0,7.9,3.5,7.9,7.8s-3.5,7.8-7.9,7.8-7.9-3.5-7.9-7.8,3.5-7.8,7.9-7.8Z"/>
      </g>
    </g>
  </g>
  <g class="st39">
    <g class="st40">
      <g>
        <path d="M193.5,68.8h15.7v15.7h-15.7v-15.7Z"/>
        <path class="st2" d="M201.3,68.8c4.3,0,7.9,3.5,7.9,7.8s-3.5,7.8-7.9,7.8-7.9-3.5-7.9-7.8,3.5-7.8,7.9-7.8Z"/>
      </g>
    </g>
  </g>
  <g class="st41">
    <g class="st42">
      <g>
        <path d="M152.3,68.8h15.7v15.7h-15.7v-15.7Z"/>
        <path class="st2" d="M160.1,68.8c4.3,0,7.9,3.5,7.9,7.8s-3.5,7.8-7.9,7.8-7.9-3.5-7.9-7.8,3.5-7.8,7.9-7.8Z"/>
      </g>
    </g>
  </g>
  <g class="st43">
    <g class="st46">
      <g>
        <path d="M111,68.8h15.7v15.7h-15.7v-15.7Z"/>
        <path class="st2" d="M118.9,68.8c4.3,0,7.8,3.5,7.8,7.8s-3.5,7.8-7.8,7.8-7.8-3.5-7.8-7.8,3.5-7.8,7.8-7.8Z"/>
      </g>
    </g>
  </g>
  <g class="st47">
    <g class="st48">
      <g>
        <path d="M69.8,68.8h15.7v15.7h-15.7v-15.7Z"/>
        <path class="st2" d="M77.7,68.8c4.3,0,7.8,3.5,7.8,7.8s-3.5,7.8-7.8,7.8-7.8-3.5-7.8-7.8,3.5-7.8,7.8-7.8Z"/>
      </g>
    </g>
  </g>
  <g class="st44">
    <g class="st66">
      <g>
        <path d="M213.8,37.1h15.7v15.7h-15.7v-15.7Z"/>
        <path class="st2" d="M221.7,37.1c4.3,0,7.9,3.5,7.9,7.8s-3.5,7.8-7.9,7.8-7.9-3.5-7.9-7.8,3.5-7.8,7.9-7.8Z"/>
      </g>
    </g>
  </g>
  <g class="st60">
    <g class="st61">
      <g>
        <path d="M172.6,37.1h15.7v15.7h-15.7v-15.7Z"/>
        <path class="st2" d="M180.4,37.1c4.3,0,7.9,3.5,7.9,7.8s-3.5,7.8-7.9,7.8-7.9-3.5-7.9-7.8,3.5-7.8,7.9-7.8Z"/>
      </g>
    </g>
  </g>
  <g class="st62">
    <g class="st63">
      <g>
        <path d="M131.4,37.1h15.7v15.7h-15.7v-15.7Z"/>
        <path class="st2" d="M139.2,37.1c4.3,0,7.9,3.5,7.9,7.8s-3.5,7.8-7.9,7.8-7.9-3.5-7.9-7.8,3.5-7.8,7.9-7.8Z"/>
      </g>
    </g>
  </g>
  <g class="st64">
    <g class="st67">
      <g>
        <path d="M90.1,37.1h15.7v15.7h-15.7v-15.7Z"/>
        <path class="st2" d="M98,37.1c4.3,0,7.8,3.5,7.8,7.8s-3.5,7.8-7.8,7.8-7.8-3.5-7.8-7.8,3.5-7.8,7.8-7.8Z"/>
      </g>
    </g>
  </g>
  <g class="st68">
    <g class="st69">
      <g>
        <path d="M64.9,181.9h-15.7v-15.7h15.7v15.7Z"/>
        <path class="st2" d="M57,181.9c-4.3,0-7.8-3.5-7.8-7.9s3.5-7.9,7.8-7.9,7.9,3.5,7.9,7.9-3.5,7.9-7.9,7.9Z"/>
      </g>
    </g>
  </g>
  <g class="st65">
    <g class="st24">
      <g>
        <path d="M106.1,181.9h-15.7v-15.7h15.7v15.7Z"/>
        <path class="st2" d="M98.3,181.9c-4.3,0-7.8-3.5-7.8-7.9s3.5-7.9,7.8-7.9,7.8,3.5,7.8,7.9-3.5,7.9-7.8,7.9Z"/>
      </g>
    </g>
  </g>
  <g class="st36">
    <g class="st26">
      <g>
        <path d="M147.4,181.9h-15.7v-15.7h15.7v15.7Z"/>
        <path class="st2" d="M139.5,181.9c-4.3,0-7.9-3.5-7.9-7.9s3.5-7.9,7.9-7.9,7.9,3.5,7.9,7.9-3.5,7.9-7.9,7.9Z"/>
      </g>
    </g>
  </g>
  <g class="st30">
    <g class="st28">
      <g>
        <path d="M188.6,181.9h-15.7v-15.7h15.7v15.7Z"/>
        <path class="st2" d="M180.7,181.9c-4.3,0-7.9-3.5-7.9-7.9s3.5-7.9,7.9-7.9,7.9,3.5,7.9,7.9-3.5,7.9-7.9,7.9Z"/>
      </g>
    </g>
  </g>
  <g class="st25">
    <g class="st29">
      <g>
        <path d="M229.8,181.9h-15.7v-15.7h15.7v15.7Z"/>
        <path class="st2" d="M222,181.9c-4.3,0-7.9-3.5-7.9-7.9s3.5-7.9,7.9-7.9,7.9,3.5,7.9,7.9-3.5,7.9-7.9,7.9Z"/>
      </g>
    </g>
  </g>
  <g class="st27">
    <g class="st37">
      <g>
        <path d="M271,181.9h-15.7v-15.7h15.7v15.7Z"/>
        <path class="st2" d="M263.2,181.9c-4.3,0-7.9-3.5-7.9-7.9s3.5-7.9,7.9-7.9,7.9,3.5,7.9,7.9-3.5,7.9-7.9,7.9Z"/>
      </g>
    </g>
  </g>
  <g class="st38">
    <g class="st16">
      <g>
        <path d="M85.2,213.6h-15.7v-15.7h15.7v15.7Z"/>
        <path class="st2" d="M77.4,213.6c-4.3,0-7.8-3.5-7.8-7.9s3.5-7.9,7.8-7.9,7.8,3.5,7.8,7.9-3.5,7.9-7.8,7.9Z"/>
      </g>
    </g>
  </g>
  <g class="st13">
    <g class="st18">
      <g>
        <path d="M126.4,213.6h-15.7v-15.7h15.7v15.7Z"/>
        <path class="st2" d="M118.6,213.6c-4.3,0-7.8-3.5-7.8-7.9s3.5-7.9,7.8-7.9,7.8,3.5,7.8,7.9-3.5,7.9-7.8,7.9Z"/>
      </g>
    </g>
  </g>
  <g class="st21">
    <g class="st19">
      <g>
        <path d="M167.7,213.6h-15.7v-15.7h15.7v15.7Z"/>
        <path class="st2" d="M159.8,213.6c-4.3,0-7.9-3.5-7.9-7.9s3.5-7.9,7.9-7.9,7.9,3.5,7.9,7.9-3.5,7.9-7.9,7.9Z"/>
      </g>
    </g>
  </g>
  <g class="st17">
    <g class="st20">
      <g>
        <path d="M208.9,213.6h-15.7v-15.7h15.7v15.7Z"/>
        <path class="st2" d="M201.1,213.6c-4.3,0-7.9-3.5-7.9-7.9s3.5-7.9,7.9-7.9,7.9,3.5,7.9,7.9-3.5,7.9-7.9,7.9Z"/>
      </g>
    </g>
  </g>
  <g class="st14">
    <g class="st15">
      <g>
        <path d="M250.1,213.6h-15.7v-15.7h15.7v15.7Z"/>
        <path class="st2" d="M242.3,213.6c-4.3,0-7.9-3.5-7.9-7.9s3.5-7.9,7.9-7.9,7.9,3.5,7.9,7.9-3.5,7.9-7.9,7.9Z"/>
      </g>
    </g>
  </g>
  <g class="st59">
    <g class="st31">
      <g>
        <path d="M106.1,245.2h-15.7v-15.7h15.7v15.7Z"/>
        <path class="st2" d="M98.3,245.2c-4.3,0-7.8-3.5-7.8-7.9s3.5-7.9,7.8-7.9,7.8,3.5,7.8,7.9-3.5,7.9-7.8,7.9Z"/>
      </g>
    </g>
  </g>
  <g class="st33">
    <g class="st35">
      <g>
        <path d="M147.4,245.2h-15.7v-15.7h15.7v15.7Z"/>
        <path class="st2" d="M139.5,245.2c-4.3,0-7.9-3.5-7.9-7.9s3.5-7.9,7.9-7.9,7.9,3.5,7.9,7.9-3.5,7.9-7.9,7.9Z"/>
      </g>
    </g>
  </g>
  <g class="st34">
    <g class="st32">
      <g>
        <path d="M188.6,245.2h-15.7v-15.7h15.7v15.7Z"/>
        <path class="st2" d="M180.7,245.2c-4.3,0-7.9-3.5-7.9-7.9s3.5-7.9,7.9-7.9,7.9,3.5,7.9,7.9-3.5,7.9-7.9,7.9Z"/>
      </g>
    </g>
  </g>
  <g class="st23">
    <g class="st22">
      <g>
        <path d="M229.8,245.2h-15.7v-15.7h15.7v15.7Z"/>
        <path class="st2" d="M222,245.2c-4.3,0-7.9-3.5-7.9-7.9s3.5-7.9,7.9-7.9,7.9,3.5,7.9,7.9-3.5,7.9-7.9,7.9Z"/>
      </g>
    </g>
  </g>
</svg>