<?xml version="1.0" encoding="UTF-8"?>
<svg id="Layer_1" xmlns="http://www.w3.org/2000/svg" version="1.1" viewBox="0 0 325 292">
  <!-- Generator: Adobe Illustrator 29.6.1, SVG Export Plug-In . SVG Version: 2.1.1 Build 9)  -->
  <defs>
    <style>
      .st0, .st1 {
        fill: none;
      }

      .st2 {
        fill: #d9d9d9;
      }

      .st1 {
        stroke: #000;
        stroke-opacity: .2;
        stroke-width: 2px;
      }

      .st3 {
        fill: #fff;
      }
    </style>
  </defs>
  <circle class="st3" cx="163" cy="146" r="100"/>
  <rect class="st0" x="267" y="20" width="38" height="38"/>
  <g>
    <path class="st2" d="M90,132l12,7v14l-12,7-12-7v-14l12-7Z"/>
    <path class="st1" d="M101,139.6v12.9l-11,6.4-11-6.4v-12.9l11-6.4,11,6.4Z"/>
    <path class="st2" d="M102,111l12,7v14l-12,7-12-7v-14l12-7Z"/>
    <path class="st1" d="M113,118.6v12.9l-11,6.4-11-6.4v-12.9l11-6.4,11,6.4Z"/>
    <path class="st2" d="M114,90l12,7v14l-12,7-12-7v-14l12-7Z"/>
    <path class="st1" d="M125,97.6v12.9l-11,6.4-11-6.4v-12.9l11-6.4,11,6.4Z"/>
    <path class="st2" d="M126,69l12,7v14l-12,7-12-7v-14l12-7Z"/>
    <path class="st1" d="M137,76.6v12.9l-11,6.4-11-6.4v-12.9l11-6.4,11,6.4Z"/>
    <path class="st2" d="M150,69l12,7v14l-12,7-12-7v-14l12-7Z"/>
    <path class="st1" d="M161,76.6v12.9l-11,6.4-11-6.4v-12.9l11-6.4,11,6.4Z"/>
    <path class="st2" d="M174,69l12,7v14l-12,7-12-7v-14l12-7Z"/>
    <path class="st1" d="M185,76.6v12.9l-11,6.4-11-6.4v-12.9l11-6.4,11,6.4Z"/>
    <path class="st2" d="M198,69l12,7v14l-12,7-12-7v-14l12-7Z"/>
    <path class="st1" d="M209,76.6v12.9l-11,6.4-11-6.4v-12.9l11-6.4,11,6.4Z"/>
    <path class="st2" d="M198,69l12,7v14l-12,7-12-7v-14l12-7Z"/>
    <path class="st1" d="M209,76.6v12.9l-11,6.4-11-6.4v-12.9l11-6.4,11,6.4Z"/>
    <path class="st2" d="M186,90l12,7v14l-12,7-12-7v-14l12-7Z"/>
    <path class="st1" d="M197,97.6v12.9l-11,6.4-11-6.4v-12.9l11-6.4,11,6.4Z"/>
    <path class="st2" d="M174,111l12,7v14l-12,7-12-7v-14l12-7Z"/>
    <path class="st1" d="M185,118.6v12.9l-11,6.4-11-6.4v-12.9l11-6.4,11,6.4Z"/>
    <path class="st2" d="M162,132l12,7v14l-12,7-12-7v-14l12-7Z"/>
    <path class="st1" d="M173,139.6v12.9l-11,6.4-11-6.4v-12.9l11-6.4,11,6.4Z"/>
    <path class="st2" d="M150,153l12,7v14l-12,7-12-7v-14l12-7Z"/>
    <path class="st1" d="M161,160.6v12.9l-11,6.4-11-6.4v-12.9l11-6.4,11,6.4Z"/>
    <path class="st2" d="M138,174l12,7v14l-12,7-12-7v-14l12-7Z"/>
    <path class="st1" d="M149,181.6v12.9l-11,6.4-11-6.4v-12.9l11-6.4,11,6.4Z"/>
    <path class="st2" d="M162,174l12,7v14l-12,7-12-7v-14l12-7Z"/>
    <path class="st1" d="M173,181.6v12.9l-11,6.4-11-6.4v-12.9l11-6.4,11,6.4Z"/>
    <path class="st2" d="M186,174l12,7v14l-12,7-12-7v-14l12-7Z"/>
    <path class="st1" d="M197,181.6v12.9l-11,6.4-11-6.4v-12.9l11-6.4,11,6.4Z"/>
    <path class="st2" d="M174,153l12,7v14l-12,7-12-7v-14l12-7Z"/>
    <path class="st1" d="M185,160.6v12.9l-11,6.4-11-6.4v-12.9l11-6.4,11,6.4Z"/>
    <path class="st2" d="M198,153l12,7v14l-12,7-12-7v-14l12-7Z"/>
    <path class="st1" d="M209,160.6v12.9l-11,6.4-11-6.4v-12.9l11-6.4,11,6.4Z"/>
    <path class="st2" d="M222,153l12,7v14l-12,7-12-7v-14l12-7Z"/>
    <path class="st1" d="M233,160.6v12.9l-11,6.4-11-6.4v-12.9l11-6.4,11,6.4Z"/>
    <path class="st2" d="M210,90l12,7v14l-12,7-12-7v-14l12-7Z"/>
    <path class="st1" d="M221,97.6v12.9l-11,6.4-11-6.4v-12.9l11-6.4,11,6.4Z"/>
    <path class="st2" d="M222,111l12,7v14l-12,7-12-7v-14l12-7Z"/>
    <path class="st1" d="M233,118.6v12.9l-11,6.4-11-6.4v-12.9l11-6.4,11,6.4Z"/>
    <path class="st2" d="M234,132l12,7v14l-12,7-12-7v-14l12-7Z"/>
    <path class="st1" d="M245,139.6v12.9l-11,6.4-11-6.4v-12.9l11-6.4,11,6.4Z"/>
    <path class="st2" d="M210,132l12,7v14l-12,7-12-7v-14l12-7Z"/>
    <path class="st1" d="M221,139.6v12.9l-11,6.4-11-6.4v-12.9l11-6.4,11,6.4Z"/>
    <path class="st2" d="M198,111l12,7v14l-12,7-12-7v-14l12-7Z"/>
    <path class="st1" d="M209,118.6v12.9l-11,6.4-11-6.4v-12.9l11-6.4,11,6.4Z"/>
    <path class="st2" d="M186,132l12,7v14l-12,7-12-7v-14l12-7Z"/>
    <path class="st1" d="M197,139.6v12.9l-11,6.4-11-6.4v-12.9l11-6.4,11,6.4Z"/>
    <path class="st2" d="M126,153l12,7v14l-12,7-12-7v-14l12-7Z"/>
    <path class="st1" d="M137,160.6v12.9l-11,6.4-11-6.4v-12.9l11-6.4,11,6.4Z"/>
    <path class="st2" d="M138,132l12,7v14l-12,7-12-7v-14l12-7Z"/>
    <path class="st1" d="M149,139.6v12.9l-11,6.4-11-6.4v-12.9l11-6.4,11,6.4Z"/>
    <path class="st2" d="M150,111l12,7v14l-12,7-12-7v-14l12-7Z"/>
    <path class="st1" d="M161,118.6v12.9l-11,6.4-11-6.4v-12.9l11-6.4,11,6.4Z"/>
    <path class="st2" d="M162,90l12,7v14l-12,7-12-7v-14l12-7Z"/>
    <path class="st1" d="M173,97.6v12.9l-11,6.4-11-6.4v-12.9l11-6.4,11,6.4Z"/>
    <path class="st2" d="M114,132l12,7v14l-12,7-12-7v-14l12-7Z"/>
    <path class="st1" d="M125,139.6v12.9l-11,6.4-11-6.4v-12.9l11-6.4,11,6.4Z"/>
    <path class="st2" d="M126,111l12,7v14l-12,7-12-7v-14l12-7Z"/>
    <path class="st1" d="M137,118.6v12.9l-11,6.4-11-6.4v-12.9l11-6.4,11,6.4Z"/>
    <path class="st2" d="M138,90l12,7v14l-12,7-12-7v-14l12-7Z"/>
    <path class="st1" d="M149,97.6v12.9l-11,6.4-11-6.4v-12.9l11-6.4,11,6.4Z"/>
    <path class="st2" d="M210,174l12,7v14l-12,7-12-7v-14l12-7Z"/>
    <path class="st1" d="M221,181.6v12.9l-11,6.4-11-6.4v-12.9l11-6.4,11,6.4Z"/>
    <path class="st2" d="M198,195l12,7v14l-12,7-12-7v-14l12-7Z"/>
    <path class="st1" d="M209,202.6v12.9l-11,6.4-11-6.4v-12.9l11-6.4,11,6.4Z"/>
    <path class="st2" d="M174,195l12,7v14l-12,7-12-7v-14l12-7Z"/>
    <path class="st1" d="M185,202.6v12.9l-11,6.4-11-6.4v-12.9l11-6.4,11,6.4Z"/>
    <path class="st2" d="M150,195l12,7v14l-12,7-12-7v-14l12-7Z"/>
    <path class="st1" d="M161,202.6v12.9l-11,6.4-11-6.4v-12.9l11-6.4,11,6.4Z"/>
    <path class="st2" d="M126,195l12,7v14l-12,7-12-7v-14l12-7Z"/>
    <path class="st1" d="M137,202.6v12.9l-11,6.4-11-6.4v-12.9l11-6.4,11,6.4Z"/>
    <path class="st2" d="M114,174l12,7v14l-12,7-12-7v-14l12-7Z"/>
    <path class="st1" d="M125,181.6v12.9l-11,6.4-11-6.4v-12.9l11-6.4,11,6.4Z"/>
    <path class="st2" d="M102,153l12,7v14l-12,7-12-7v-14l12-7Z"/>
    <path class="st1" d="M113,160.6v12.9l-11,6.4-11-6.4v-12.9l11-6.4,11,6.4Z"/>
  </g>
</svg>